<svg width="102" height="24" viewBox="0 0 102 24" fill="none" xmlns="http://www.w3.org/2000/svg">
<path d="M78.4002 5.36719H72.7549C72.3695 5.36719 72.041 5.63758 71.9808 6.005L69.6979 19.9519C69.6525 20.227 69.8737 20.4752 70.1617 20.4752H73.0586C73.3277 20.4752 73.558 20.2859 73.6001 20.0282L74.2479 16.0749C74.3074 15.7067 74.6367 15.4363 75.0221 15.4363H76.8081C80.5271 15.4363 82.6721 13.7025 83.2334 10.2669C83.4867 8.76384 83.2433 7.58284 82.5128 6.75575C81.7114 5.84754 80.2894 5.36719 78.4002 5.36719ZM79.0514 10.461C78.7435 12.4126 77.196 12.4126 75.6989 12.4126H74.848L75.4463 8.76782C75.4818 8.54752 75.6783 8.38528 75.9102 8.38528H76.3006C77.319 8.38528 78.2814 8.38529 78.7782 8.94516C79.0745 9.27918 79.1645 9.77544 79.0514 10.461Z" fill="#179BD7"/>
<path d="M95.2716 10.3983H92.5702C92.3383 10.3983 92.1411 10.5605 92.1064 10.7808L91.9867 11.5093L91.7969 11.2452C91.2117 10.4269 89.9077 10.1533 88.6053 10.1533C85.6185 10.1533 83.0682 12.3332 82.5713 15.3911C82.3138 16.9164 82.6794 18.375 83.5774 19.3921C84.4027 20.3274 85.5797 20.7171 86.9819 20.7171C89.3886 20.7171 90.7231 19.2259 90.7231 19.2259L90.6026 19.9496C90.5573 20.2264 90.7784 20.4745 91.0681 20.4745H93.502C93.8875 20.4745 94.216 20.2041 94.2762 19.8359L95.7379 10.9216C95.7824 10.6472 95.5613 10.3983 95.2716 10.3983ZM91.5039 15.4674C91.2448 16.9554 90.0175 17.9542 88.4543 17.9542C87.6711 17.9542 87.0422 17.7117 86.6394 17.252C86.2399 16.7955 86.0897 16.1458 86.2152 15.4221C86.4603 13.9468 87.7049 12.9153 89.2441 12.9153C90.0117 12.9153 90.6357 13.1611 91.0467 13.6247C91.4602 14.0932 91.6236 14.7469 91.5039 15.4674Z" fill="#179BD7"/>
<path d="M98.4584 5.74954L96.1416 19.9517C96.0962 20.2269 96.3174 20.475 96.6055 20.475H98.9346C99.3217 20.475 99.6501 20.2046 99.7096 19.8364L101.994 5.8903C102.039 5.61513 101.818 5.36621 101.53 5.36621H98.9222C98.6919 5.36701 98.4938 5.52924 98.4584 5.74954Z" fill="#179BD7"/>
<path d="M38.1394 5.36719H32.4949C32.1087 5.36719 31.7802 5.63758 31.72 6.005L29.4371 19.9519C29.3917 20.227 29.6129 20.4752 29.9026 20.4752H32.5973C32.9835 20.4752 33.312 20.2048 33.3723 19.8366L33.988 16.0749C34.0474 15.7067 34.3767 15.4363 34.7621 15.4363H36.549C40.2671 15.4363 42.413 13.7025 42.9734 10.2669C43.2259 8.76384 42.9841 7.58284 42.2537 6.75575C41.4515 5.84754 40.0286 5.36719 38.1394 5.36719ZM38.7906 10.461C38.4819 12.4126 36.9344 12.4126 35.4381 12.4126H34.5863L35.1839 8.76782C35.2194 8.54752 35.4174 8.38528 35.6485 8.38528H36.0389C37.0582 8.38528 38.0197 8.38529 38.5166 8.94516C38.8129 9.27918 38.9037 9.77544 38.7906 10.461Z" fill="#253B80"/>
<path d="M55.0119 10.3983H52.3089C52.0786 10.3983 51.8797 10.5605 51.8442 10.7808L51.7246 11.5093L51.5356 11.2452C50.9504 10.4269 49.6456 10.1533 48.3432 10.1533C45.3563 10.1533 42.8052 12.3332 42.3083 15.3911C42.05 16.9164 42.4173 18.375 43.3152 19.3921C44.1389 20.3274 45.3175 20.7171 46.7197 20.7171C49.1264 20.7171 50.461 19.2259 50.461 19.2259L50.3405 19.9496C50.2951 20.2264 50.5163 20.4745 50.8043 20.4745H53.2391C53.6261 20.4745 53.953 20.2041 54.0141 19.8359L55.4749 10.9216C55.5211 10.6472 55.3007 10.3983 55.0119 10.3983ZM51.2442 15.4674C50.9834 16.9554 49.7578 17.9542 48.1946 17.9542C47.4097 17.9542 46.7825 17.7117 46.3797 17.252C45.9802 16.7955 45.8284 16.1458 45.9555 15.4221C46.199 13.9468 47.4452 12.9153 48.9845 12.9153C49.752 12.9153 50.376 13.1611 50.787 13.6247C51.1988 14.0932 51.3623 14.7469 51.2442 15.4674Z" fill="#253B80"/>
<path d="M69.4073 10.3984H66.6912C66.432 10.3984 66.1885 10.5225 66.0416 10.7301L62.2954 16.0473L60.7075 10.9376C60.6076 10.6179 60.3014 10.3984 59.9548 10.3984H57.2857C56.9613 10.3984 56.736 10.7038 56.8391 10.9981L59.831 19.4583L57.0182 23.2844C56.7971 23.5858 57.0199 24.0002 57.402 24.0002H60.1149C60.3724 24.0002 60.6134 23.8793 60.7595 23.6757L69.7936 11.1102C70.0098 10.8096 69.7878 10.3984 69.4073 10.3984Z" fill="#253B80"/>
<path d="M5.9969 23.1858L6.42855 20.5438L5.46704 20.5224H0.875702L4.06644 1.02759C4.07635 0.968738 4.10854 0.913863 4.15558 0.874895C4.20262 0.835926 4.26287 0.814453 4.3256 0.814453H12.0672C14.6373 0.814453 16.411 1.3298 17.337 2.34696C17.7711 2.82413 18.0476 3.32277 18.1813 3.87152C18.3216 4.4473 18.3241 5.13522 18.1871 5.97425L18.1772 6.03548V6.57309L18.6113 6.81009C18.9769 6.99698 19.2674 7.21091 19.4903 7.45586C19.8617 7.86384 20.1019 8.38236 20.2034 8.99712C20.3082 9.62936 20.2735 10.3817 20.1019 11.2334C19.9038 12.2132 19.5835 13.0666 19.1511 13.7648C18.7533 14.4082 18.2465 14.9419 17.6448 15.3554C17.0704 15.7483 16.3879 16.0465 15.6162 16.2374C14.8684 16.4251 14.0158 16.5197 13.0807 16.5197H12.4782C12.0474 16.5197 11.629 16.6692 11.3005 16.9372C10.9712 17.2108 10.7533 17.5846 10.6864 17.9934L10.6411 18.2311L9.87845 22.8875L9.84378 23.0585C9.8347 23.1126 9.81902 23.1396 9.79591 23.1579C9.77528 23.1746 9.74557 23.1858 9.71668 23.1858H5.9969Z" fill="#253B80"/>
<path d="M19.0224 6.09766C18.9993 6.24001 18.9729 6.38555 18.9432 6.53506C17.9223 11.5859 14.4294 13.3308 9.96852 13.3308H7.6972C7.15165 13.3308 6.69194 13.7125 6.60693 14.231L5.44404 21.3377L5.11473 23.3521C5.05943 23.6925 5.33179 23.9995 5.68833 23.9995H9.71679C10.1938 23.9995 10.5991 23.6654 10.6742 23.2121L10.7138 23.0149L11.4723 18.3768L11.521 18.1223C11.5953 17.6674 12.0013 17.3334 12.4784 17.3334H13.0809C16.9839 17.3334 20.0392 15.8065 20.9323 11.3879C21.3053 9.54203 21.1122 8.00077 20.1251 6.9168C19.8263 6.58994 19.4557 6.31874 19.0224 6.09766Z" fill="#179BD7"/>
<path d="M17.9542 5.68709C17.7982 5.64335 17.6373 5.60359 17.4722 5.5678C17.3063 5.53281 17.1363 5.50179 16.9613 5.47475C16.3489 5.37932 15.6779 5.33398 14.9591 5.33398H8.89121C8.74183 5.33398 8.59987 5.36659 8.47277 5.42544C8.19298 5.55507 7.985 5.81036 7.93465 6.1229L6.64383 14.001L6.60669 14.2308C6.6917 13.7123 7.15141 13.3306 7.69696 13.3306H9.96828C14.4292 13.3306 17.922 11.5849 18.943 6.53486C18.9735 6.38535 18.9991 6.23981 19.0222 6.09746C18.7639 5.96544 18.4841 5.85251 18.1828 5.75628C18.1085 5.73242 18.0318 5.70936 17.9542 5.68709Z" fill="#222D65"/>
<path d="M7.93475 6.12288C7.9851 5.81033 8.19308 5.55505 8.47287 5.42621C8.6008 5.36736 8.74193 5.33476 8.89131 5.33476H14.9592C15.678 5.33476 16.349 5.38009 16.9614 5.47552C17.1364 5.50256 17.3064 5.53358 17.4723 5.56857C17.6374 5.60436 17.7983 5.64412 17.9543 5.68786C18.0319 5.71013 18.1086 5.73319 18.1838 5.75626C18.485 5.85248 18.7648 5.96621 19.0231 6.09743C19.3268 4.2309 19.0206 2.96004 17.9733 1.80927C16.8186 0.542383 14.7347 0 12.068 0H4.32639C3.78167 0 3.31701 0.381736 3.23282 0.901055L0.00824412 20.5962C-0.0553066 20.9859 0.25667 21.3374 0.664385 21.3374H5.44389L6.64393 14.0009L7.93475 6.12288Z" fill="#253B80"/>
</svg>
