<svg width="18" height="18" viewBox="0 0 18 18" fill="none" xmlns="http://www.w3.org/2000/svg">
<path d="M3.1665 14H6.69984C6.80951 14.0007 6.91823 13.9796 7.01976 13.9382C7.12129 13.8967 7.21364 13.8356 7.2915 13.7584L13.0582 7.98336L15.4248 5.6667C15.5029 5.58923 15.5649 5.49706 15.6072 5.39551C15.6496 5.29396 15.6713 5.18504 15.6713 5.07503C15.6713 4.96502 15.6496 4.8561 15.6072 4.75455C15.5649 4.653 15.5029 4.56083 15.4248 4.48336L11.8915 0.908364C11.814 0.830257 11.7219 0.768262 11.6203 0.725954C11.5188 0.683647 11.4098 0.661865 11.2998 0.661865C11.1898 0.661865 11.0809 0.683647 10.9794 0.725954C10.8778 0.768262 10.7856 0.830257 10.7082 0.908364L8.35817 3.2667L2.57484 9.0417C2.4976 9.11956 2.4365 9.21191 2.39503 9.31344C2.35356 9.41497 2.33254 9.52369 2.33317 9.63336V13.1667C2.33317 13.3877 2.42097 13.5997 2.57725 13.756C2.73353 13.9122 2.94549 14 3.1665 14ZM11.2998 2.67503L13.6582 5.03336L12.4748 6.2167L10.1165 3.85836L11.2998 2.67503ZM3.99984 9.97503L8.9415 5.03336L11.2998 7.3917L6.35817 12.3334H3.99984V9.97503ZM16.4998 15.6667H1.49984C1.27882 15.6667 1.06686 15.7545 0.910582 15.9108C0.754301 16.0671 0.666504 16.279 0.666504 16.5C0.666504 16.721 0.754301 16.933 0.910582 17.0893C1.06686 17.2456 1.27882 17.3334 1.49984 17.3334H16.4998C16.7209 17.3334 16.9328 17.2456 17.0891 17.0893C17.2454 16.933 17.3332 16.721 17.3332 16.5C17.3332 16.279 17.2454 16.0671 17.0891 15.9108C16.9328 15.7545 16.7209 15.6667 16.4998 15.6667Z" fill="black"/>
</svg>
