<svg width="49" height="20" viewBox="0 0 49 20" fill="none" xmlns="http://www.w3.org/2000/svg">
<path d="M9.04524 2.5785C8.47436 3.25404 7.56094 3.78687 6.64753 3.71075C6.53335 2.79734 6.98054 1.82683 7.50385 1.2274C8.07474 0.532826 9.07379 0.038059 9.88254 0C9.97769 0.951475 9.60661 1.88392 9.04524 2.5785ZM9.87303 3.89153C8.55048 3.81541 7.41822 4.6432 6.79025 4.6432C6.15276 4.6432 5.19177 3.92959 4.14515 3.94862C2.78454 3.96765 1.51908 4.73834 0.824501 5.96575C-0.602711 8.42055 0.453425 12.0552 1.83306 14.0533C2.50861 15.0428 3.31736 16.1275 4.38302 16.0894C5.39158 16.0514 5.7912 15.4329 7.00909 15.4329C8.23649 15.4329 8.58853 16.0894 9.65419 16.0704C10.7579 16.0514 11.4525 15.0809 12.128 14.0913C12.8987 12.9686 13.2127 11.8744 13.2317 11.8173C13.2127 11.7983 11.1004 10.9895 11.0814 8.55376C11.0624 6.5176 12.7465 5.5471 12.8226 5.49001C11.8711 4.08183 10.3868 3.92959 9.87303 3.89153ZM17.5134 1.13225V15.9657H19.8159V10.8944H23.0034C25.9149 10.8944 27.9606 8.89629 27.9606 6.00381C27.9606 3.11132 25.9529 1.13225 23.0795 1.13225H17.5134ZM19.8159 3.07326H22.4706C24.4686 3.07326 25.6104 4.13892 25.6104 6.01332C25.6104 7.88773 24.4686 8.96289 22.461 8.96289H19.8159V3.07326ZM32.1661 16.0799C33.6123 16.0799 34.9539 15.3473 35.5628 14.1865H35.6104V15.9657H37.7417V8.5823C37.7417 6.44148 36.0291 5.06185 33.3935 5.06185C30.9482 5.06185 29.1404 6.46051 29.0738 8.38249H31.148C31.3193 7.46908 32.1661 6.86965 33.3269 6.86965C34.7351 6.86965 35.5248 7.52617 35.5248 8.73454V9.55281L32.6513 9.72407C29.9777 9.88582 28.5314 10.98 28.5314 12.883C28.5314 14.8049 30.0253 16.0799 32.1661 16.0799ZM32.7845 14.3197C31.5571 14.3197 30.7769 13.7298 30.7769 12.8259C30.7769 11.8934 31.5286 11.3511 32.9653 11.2655L35.5248 11.1037V11.941C35.5248 13.3302 34.345 14.3197 32.7845 14.3197ZM40.5866 20C42.8321 20 43.8882 19.1437 44.8112 16.5461L48.8549 5.20457H46.5143L43.8026 13.9677H43.755L41.0433 5.20457H38.6361L42.5372 16.0038L42.3278 16.6603C41.9758 17.7736 41.4049 18.2017 40.3868 18.2017C40.206 18.2017 39.854 18.1827 39.7113 18.1637V19.9429C39.8445 19.981 40.4154 20 40.5866 20Z" fill="white"/>
</svg>
