<svg width="12" height="12" viewBox="0 0 12 12" fill="none" xmlns="http://www.w3.org/2000/svg">
<path d="M11 4.99994H3.41L6.71 1.70994C6.89831 1.52164 7.00409 1.26624 7.00409 0.999941C7.00409 0.73364 6.89831 0.478245 6.71 0.289941C6.5217 0.101638 6.2663 -0.00415039 6 -0.00415039C5.7337 -0.00415039 5.47831 0.101638 5.29 0.289941L0.290003 5.28994C0.198963 5.38505 0.127598 5.49719 0.0800031 5.61994C-0.0200149 5.8634 -0.0200149 6.13648 0.0800031 6.37994C0.127598 6.50269 0.198963 6.61484 0.290003 6.70994L5.29 11.7099C5.38297 11.8037 5.49357 11.8781 5.61543 11.9288C5.73729 11.9796 5.86799 12.0057 6 12.0057C6.13202 12.0057 6.26272 11.9796 6.38458 11.9288C6.50644 11.8781 6.61704 11.8037 6.71 11.7099C6.80373 11.617 6.87813 11.5064 6.92889 11.3845C6.97966 11.2627 7.0058 11.132 7.0058 10.9999C7.0058 10.8679 6.97966 10.7372 6.92889 10.6154C6.87813 10.4935 6.80373 10.3829 6.71 10.2899L3.41 6.99994H11C11.2652 6.99994 11.5196 6.89458 11.7071 6.70705C11.8946 6.51951 12 6.26516 12 5.99994C12 5.73472 11.8946 5.48037 11.7071 5.29283C11.5196 5.1053 11.2652 4.99994 11 4.99994Z" fill="black"/>
</svg>
