<svg width="6" height="4" viewBox="0 0 6 4" fill="none" xmlns="http://www.w3.org/2000/svg">
<path d="M5.49985 0.584971C5.40617 0.491846 5.27945 0.439575 5.14735 0.439575C5.01526 0.439575 4.88853 0.491846 4.79485 0.584971L2.99985 2.35497L1.22985 0.584971C1.13617 0.491846 1.00945 0.439575 0.877352 0.439575C0.745259 0.439575 0.618533 0.491846 0.524852 0.584971C0.477988 0.631453 0.440791 0.686753 0.415406 0.747683C0.390022 0.808613 0.376953 0.873966 0.376953 0.939971C0.376953 1.00598 0.390022 1.07133 0.415406 1.13226C0.440791 1.19319 0.477988 1.24849 0.524852 1.29497L2.64485 3.41497C2.69133 3.46184 2.74663 3.49903 2.80756 3.52442C2.86849 3.5498 2.93385 3.56287 2.99985 3.56287C3.06586 3.56287 3.13121 3.5498 3.19214 3.52442C3.25307 3.49903 3.30837 3.46184 3.35485 3.41497L5.49985 1.29497C5.54672 1.24849 5.58391 1.19319 5.6093 1.13226C5.63468 1.07133 5.64775 1.00598 5.64775 0.939971C5.64775 0.873966 5.63468 0.808613 5.6093 0.747683C5.58391 0.686753 5.54672 0.631453 5.49985 0.584971Z" fill="black"/>
</svg>
