<svg width="51" height="20" viewBox="0 0 51 20" fill="none" xmlns="http://www.w3.org/2000/svg">
<path d="M24.1364 9.77098V15.6335H22.2766V1.15573H27.2092C27.798 1.14343 28.3833 1.24785 28.9316 1.46297C29.4798 1.67809 29.9799 1.99965 30.4032 2.40909C30.8308 2.79367 31.1711 3.26531 31.4012 3.79232C31.6313 4.31934 31.746 4.88951 31.7375 5.46451C31.7497 6.04259 31.6368 6.61648 31.4065 7.14685C31.1762 7.67722 30.834 8.15153 30.4032 8.53726C29.5407 9.35974 28.476 9.7706 27.2092 9.76983H24.1364V9.77098ZM24.1364 2.93815V7.99202H27.2554C27.5973 8.00216 27.9376 7.94082 28.2545 7.81192C28.5713 7.68303 28.8578 7.48942 29.0956 7.24347C29.3321 7.01352 29.5201 6.73848 29.6485 6.43461C29.7769 6.13074 29.843 5.80421 29.843 5.47433C29.843 5.14445 29.7769 4.81792 29.6485 4.51405C29.5201 4.21018 29.3321 3.93514 29.0956 3.70519C28.8608 3.45406 28.5753 3.25571 28.2581 3.12327C27.9408 2.99083 27.599 2.92734 27.2554 2.937H24.1364V2.93815Z" fill="white"/>
<path d="M36.0234 5.40443C37.398 5.40443 38.4831 5.77178 39.2787 6.50647C40.0742 7.24115 40.4716 8.24846 40.4708 9.52839V15.6335H38.6918V14.2588H38.611C37.8409 15.3909 36.8166 15.9569 35.5382 15.9569C34.447 15.9569 33.534 15.6335 32.7993 14.9866C32.4467 14.6897 32.1649 14.3178 31.9742 13.8982C31.7836 13.4785 31.6889 13.0216 31.6973 12.5607C31.6973 11.5357 32.0847 10.7205 32.8594 10.1152C33.6341 9.50991 34.6684 9.20648 35.9622 9.20494C37.0665 9.20494 37.976 9.4071 38.6907 9.81141V9.3863C38.6928 9.07212 38.6249 8.7614 38.4921 8.47668C38.3592 8.19197 38.1646 7.94039 37.9225 7.74019C37.4307 7.29646 36.7897 7.05435 36.1274 7.0621C35.0885 7.0621 34.2664 7.5003 33.6611 8.37669L32.023 7.34512C32.9241 6.05133 34.2575 5.40443 36.0234 5.40443ZM33.6172 12.6011C33.6159 12.8378 33.6713 13.0714 33.7786 13.2824C33.8859 13.4934 34.042 13.6757 34.234 13.8141C34.6454 14.1376 35.1559 14.309 35.6792 14.2992C36.464 14.2979 37.2163 13.9855 37.7712 13.4306C38.3873 12.8507 38.6953 12.1703 38.6953 11.3894C38.1154 10.9273 37.3068 10.6963 36.2694 10.6963C35.514 10.6963 34.884 10.8784 34.3796 11.2427C33.8702 11.6123 33.6172 12.0617 33.6172 12.6011Z" fill="white"/>
<path d="M50.6825 5.72787L44.4723 20H42.5524L44.857 15.0062L40.7734 5.72787H42.795L45.7464 12.8437H45.7869L48.6575 5.72787H50.6825Z" fill="white"/>
<path d="M16.6211 8.50721C16.6218 7.94043 16.5739 7.37463 16.4779 6.81604H8.63428V10.0193H13.1267C13.0348 10.5309 12.8402 11.0186 12.5547 11.453C12.2693 11.8874 11.8988 12.2595 11.4656 12.5468V14.6261H14.1467C15.7166 13.1787 16.6211 11.0382 16.6211 8.50721Z" fill="#4285F4"/>
<path d="M8.63409 16.635C10.8786 16.635 12.7684 15.898 14.1466 14.6273L11.4654 12.548C10.7192 13.054 9.75807 13.3428 8.63409 13.3428C6.46468 13.3428 4.62334 11.8803 3.96489 9.90959H1.20288V12.0524C1.89514 13.4299 2.95663 14.5879 4.26886 15.3972C5.5811 16.2064 7.09241 16.6349 8.63409 16.635Z" fill="#34A853"/>
<path d="M3.96503 9.9096C3.61693 8.87693 3.61693 7.75863 3.96503 6.72596V4.58311H1.20302C0.62067 5.74193 0.317383 7.02087 0.317383 8.31778C0.317383 9.61469 0.62067 10.8936 1.20302 12.0524L3.96503 9.9096Z" fill="#FBBC04"/>
<path d="M8.63409 3.29278C9.8202 3.2734 10.9663 3.72155 11.8247 4.54036L14.1985 2.16649C12.6933 0.752649 10.6991 -0.0235732 8.63409 0.000545688C7.09241 0.000615951 5.5811 0.429177 4.26886 1.23838C2.95663 2.04759 1.89514 3.20559 1.20288 4.5831L3.96489 6.72594C4.62334 4.75522 6.46468 3.29278 8.63409 3.29278Z" fill="#EA4335"/>
</svg>
