<svg width="83" height="20" viewBox="0 0 83 20" fill="none" xmlns="http://www.w3.org/2000/svg">
<path d="M31.173 4.4728H26.6406C26.3305 4.4728 26.0667 4.69813 26.0183 5.00431L24.1852 16.6267C24.1487 16.856 24.3263 17.0628 24.559 17.0628H26.7228C27.0329 17.0628 27.2967 16.8374 27.3451 16.5306L27.8395 13.3959C27.8872 13.089 28.1516 12.8637 28.4611 12.8637H29.896C32.8816 12.8637 34.6047 11.4189 35.0547 8.55591C35.2575 7.30334 35.0633 6.31918 34.4768 5.62994C33.8326 4.87309 32.69 4.4728 31.173 4.4728ZM31.6959 8.71762C31.4481 10.344 30.2055 10.344 29.0039 10.344H28.32L28.7998 7.30665C28.8283 7.12308 28.9874 6.98788 29.1729 6.98788H29.4864C30.3049 6.98788 31.077 6.98788 31.4759 7.45444C31.7138 7.73279 31.7867 8.14634 31.6959 8.71762Z" fill="#253B80"/>
<path d="M44.7215 8.66526H42.5511C42.3662 8.66526 42.2065 8.80046 42.178 8.98403L42.0819 9.5911L41.9301 9.37107C41.4602 8.68912 40.4124 8.46114 39.3667 8.46114C36.9682 8.46114 34.9197 10.2777 34.5207 12.8259C34.3133 14.097 34.6082 15.3125 35.3293 16.1601C35.9907 16.9395 36.9371 17.2642 38.0631 17.2642C39.9956 17.2642 41.0672 16.0216 41.0672 16.0216L40.9705 16.6247C40.934 16.8553 41.1116 17.0621 41.3429 17.0621H43.298C43.6088 17.0621 43.8713 16.8368 43.9203 16.5299L45.0933 9.10134C45.1304 8.87269 44.9535 8.66526 44.7215 8.66526ZM41.6962 12.8895C41.4867 14.1295 40.5026 14.9619 39.2474 14.9619C38.6171 14.9619 38.1134 14.7598 37.79 14.3767C37.4692 13.9963 37.3473 13.4548 37.4494 12.8518C37.6449 11.6224 38.6456 10.7628 39.8816 10.7628C40.4979 10.7628 40.999 10.9676 41.329 11.354C41.6597 11.7443 41.7909 12.2891 41.6962 12.8895Z" fill="#253B80"/>
<path d="M56.2809 8.66525H54.0998C53.8917 8.66525 53.6962 8.76863 53.5782 8.94161L50.5701 13.3726L49.295 9.11458C49.2148 8.84816 48.9689 8.66525 48.6906 8.66525H46.5473C46.2868 8.66525 46.1059 8.91974 46.1888 9.16495L48.5912 16.2151L46.3326 19.4035C46.155 19.6547 46.3339 20 46.6407 20H48.8191C49.0259 20 49.2194 19.8993 49.3367 19.7296L56.591 9.25839C56.7647 9.00788 56.5864 8.66525 56.2809 8.66525Z" fill="#253B80"/>
<path d="M63.5019 4.4728H58.9688C58.6593 4.4728 58.3955 4.69813 58.3472 5.00431L56.514 16.6267C56.4776 16.856 56.6552 17.0628 56.8865 17.0628H59.2127C59.4287 17.0628 59.6136 16.905 59.6474 16.6903L60.1677 13.3959C60.2154 13.089 60.4798 12.8637 60.7893 12.8637H62.2235C65.2098 12.8637 66.9322 11.4189 67.3829 8.55591C67.5863 7.30334 67.3908 6.31918 66.8043 5.62994C66.1608 4.87309 65.0189 4.4728 63.5019 4.4728ZM64.0248 8.71762C63.7776 10.344 62.535 10.344 61.3328 10.344H60.6495L61.13 7.30665C61.1585 7.12308 61.3162 6.98788 61.5024 6.98788H61.8159C62.6337 6.98788 63.4065 6.98788 63.8054 7.45444C64.0434 7.73279 64.1156 8.14634 64.0248 8.71762Z" fill="#179BD7"/>
<path d="M77.0495 8.66526H74.8804C74.6942 8.66526 74.5358 8.80046 74.5079 8.98403L74.4118 9.5911L74.2594 9.37107C73.7895 8.68912 72.7424 8.46114 71.6966 8.46114C69.2982 8.46114 67.2503 10.2777 66.8514 12.8259C66.6446 14.097 66.9382 15.3125 67.6592 16.1601C68.322 16.9395 69.267 17.2642 70.393 17.2642C72.3256 17.2642 73.3972 16.0216 73.3972 16.0216L73.3004 16.6247C73.264 16.8553 73.4416 17.0621 73.6742 17.0621H75.6286C75.9381 17.0621 76.2019 16.8368 76.2503 16.5299L77.424 9.10134C77.4598 8.87269 77.2821 8.66526 77.0495 8.66526ZM74.0241 12.8895C73.816 14.1295 72.8306 14.9619 71.5753 14.9619C70.9464 14.9619 70.4414 14.7598 70.118 14.3767C69.7972 13.9963 69.6766 13.4548 69.7773 12.8518C69.9742 11.6224 70.9736 10.7628 72.2096 10.7628C72.8259 10.7628 73.3269 10.9676 73.657 11.354C73.989 11.7443 74.1202 12.2891 74.0241 12.8895Z" fill="#179BD7"/>
<path d="M79.6085 4.79158L77.7482 16.6267C77.7117 16.856 77.8893 17.0628 78.1206 17.0628H79.9909C80.3017 17.0628 80.5655 16.8374 80.6132 16.5306L82.4476 4.90888C82.4841 4.67957 82.3065 4.47214 82.0752 4.47214H79.9809C79.796 4.4728 79.637 4.608 79.6085 4.79158Z" fill="#179BD7"/>
<path d="M5.363 19.3214L5.70961 17.1198L4.93752 17.1019H1.25073L3.81286 0.856263C3.82082 0.80722 3.84666 0.761492 3.88444 0.729018C3.92221 0.696544 3.97059 0.67865 4.02096 0.67865H10.2374C12.3012 0.67865 13.7254 1.1081 14.469 1.95574C14.8176 2.35338 15.0396 2.76891 15.1469 3.2262C15.2596 3.70602 15.2616 4.27929 15.1516 4.97847L15.1436 5.0295V5.47751L15.4922 5.675C15.7858 5.83075 16.0191 6.00902 16.198 6.21315C16.4963 6.55313 16.6891 6.98523 16.7706 7.49752C16.8548 8.0244 16.827 8.65135 16.6891 9.36113C16.5301 10.1776 16.2729 10.8887 15.9257 11.4706C15.6062 12.0068 15.1993 12.4515 14.7162 12.7961C14.2549 13.1235 13.7068 13.372 13.0872 13.5311C12.4867 13.6875 11.8021 13.7663 11.0512 13.7663H10.5675C10.2215 13.7663 9.8855 13.8909 9.62173 14.1143C9.3573 14.3422 9.18234 14.6537 9.12866 14.9944L9.09221 15.1925L8.47984 19.0728L8.452 19.2153C8.44471 19.2604 8.43212 19.2829 8.41357 19.2982C8.397 19.3121 8.37314 19.3214 8.34994 19.3214H5.363Z" fill="#253B80"/>
<path d="M15.8224 5.0812C15.8039 5.19983 15.7826 5.32111 15.7588 5.4457C14.939 9.65473 12.1343 11.1088 8.55221 11.1088H6.72837C6.2903 11.1088 5.92116 11.4269 5.85289 11.859L4.9191 17.7812L4.65467 19.4599C4.61027 19.7435 4.82897 19.9994 5.11527 19.9994H8.35008C8.73314 19.9994 9.05854 19.721 9.11885 19.3432L9.15066 19.1789L9.75971 15.3138L9.79881 15.1017C9.85846 14.7227 10.1845 14.4443 10.5676 14.4443H11.0514C14.1855 14.4443 16.6389 13.1719 17.356 9.48971C17.6555 7.9515 17.5005 6.66712 16.7078 5.76382C16.4679 5.49143 16.1703 5.26544 15.8224 5.0812Z" fill="#179BD7"/>
<path d="M14.9645 4.73923C14.8392 4.70278 14.71 4.66964 14.5774 4.63982C14.4442 4.61066 14.3077 4.58481 14.1672 4.56228C13.6755 4.48275 13.1367 4.44498 12.5594 4.44498H7.68699C7.56703 4.44498 7.45304 4.47215 7.35098 4.52119C7.12631 4.62922 6.95931 4.84195 6.91888 5.10241L5.88236 11.6675L5.85254 11.859C5.9208 11.4269 6.28994 11.1088 6.72801 11.1088H8.55186C12.1339 11.1088 14.9386 9.65407 15.7584 5.44571C15.783 5.32111 15.8035 5.19983 15.8221 5.0812C15.6146 4.97119 15.39 4.87708 15.1481 4.79689C15.0884 4.77701 15.0268 4.75779 14.9645 4.73923Z" fill="#222D65"/>
<path d="M6.91913 5.10239C6.95956 4.84194 7.12656 4.6292 7.35123 4.52184C7.45395 4.47279 7.56728 4.44562 7.68724 4.44562H12.5597C13.1369 4.44562 13.6757 4.4834 14.1675 4.56293C14.308 4.58546 14.4445 4.61131 14.5777 4.64047C14.7102 4.67029 14.8395 4.70343 14.9647 4.73988C15.027 4.75843 15.0887 4.77765 15.149 4.79687C15.3909 4.87706 15.6155 4.97183 15.823 5.08118C16.0669 3.52575 15.821 2.4667 14.98 1.50772C14.0528 0.451985 12.3794 0 10.2381 0H4.02165C3.58425 0 3.21113 0.318113 3.14353 0.750878L0.554227 17.1635C0.503197 17.4882 0.75371 17.7812 1.0811 17.7812H4.919L5.88261 11.6674L6.91913 5.10239Z" fill="#253B80"/>
</svg>
