<svg width="10" height="10" viewBox="0 0 10 10" fill="none" xmlns="http://www.w3.org/2000/svg">
<path d="M9.93333 4.68381C9.89367 4.58152 9.8342 4.48807 9.75833 4.40881L5.59167 0.242147C5.51397 0.164448 5.42173 0.102814 5.32021 0.0607638C5.21869 0.0187136 5.10988 -0.00292969 5 -0.00292969C4.77808 -0.00292969 4.56525 0.085227 4.40833 0.242147C4.33063 0.319846 4.269 0.412087 4.22695 0.513606C4.1849 0.615124 4.16326 0.723931 4.16326 0.833813C4.16326 1.05573 4.25141 1.26856 4.40833 1.42548L7.15833 4.16715H0.833333C0.61232 4.16715 0.400358 4.25494 0.244078 4.41122C0.0877975 4.56751 0 4.77947 0 5.00048C0 5.22149 0.0877975 5.43346 0.244078 5.58974C0.400358 5.74602 0.61232 5.83381 0.833333 5.83381H7.15833L4.40833 8.57548C4.33023 8.65295 4.26823 8.74512 4.22592 8.84667C4.18362 8.94822 4.16183 9.05714 4.16183 9.16715C4.16183 9.27716 4.18362 9.38608 4.22592 9.48763C4.26823 9.58918 4.33023 9.68134 4.40833 9.75881C4.4858 9.83692 4.57797 9.89892 4.67952 9.94122C4.78107 9.98353 4.88999 10.0053 5 10.0053C5.11001 10.0053 5.21893 9.98353 5.32048 9.94122C5.42203 9.89892 5.5142 9.83692 5.59167 9.75881L9.75833 5.59215C9.8342 5.51289 9.89367 5.41944 9.93333 5.31715C10.0167 5.11426 10.0167 4.8867 9.93333 4.68381Z" fill="black"/>
</svg>
