<svg width="22" height="22" viewBox="0 0 22 22" fill="none" xmlns="http://www.w3.org/2000/svg">
<path d="M21.61 6.05011L16 0.390114C15.9065 0.297433 15.7957 0.224108 15.6739 0.174343C15.552 0.124579 15.4216 0.0993535 15.29 0.100114C15.0276 0.101219 14.7762 0.20537 14.59 0.390114L0.389975 14.5401C0.203724 14.7275 0.0991821 14.9809 0.0991821 15.2451C0.0991821 15.5093 0.203724 15.7628 0.389975 15.9501L6.04997 21.6101C6.14341 21.7028 6.25423 21.7761 6.37607 21.8259C6.49791 21.8757 6.62837 21.9009 6.75997 21.9001C7.02232 21.899 7.27371 21.7949 7.45997 21.6101L10.29 18.7801L18.78 10.2901L21.61 7.46011C21.7962 7.27275 21.9008 7.0193 21.9008 6.75511C21.9008 6.49093 21.7962 6.23748 21.61 6.05011ZM18.07 8.17011L17.36 7.46011C17.1726 7.27386 16.9192 7.16932 16.655 7.16932C16.3908 7.16932 16.1373 7.27386 15.95 7.46011C15.8562 7.55308 15.7819 7.66368 15.7311 7.78554C15.6803 7.9074 15.6542 8.0381 15.6542 8.17011C15.6542 8.30213 15.6803 8.43283 15.7311 8.55469C15.7819 8.67655 15.8562 8.78715 15.95 8.88011L16.66 9.59011L15.24 11.0001L13.12 8.88011C12.9287 8.71629 12.6826 8.63068 12.4309 8.6404C12.1792 8.65012 11.9405 8.75446 11.7624 8.93255C11.5843 9.11065 11.48 9.34939 11.4703 9.60106C11.4605 9.85274 11.5461 10.0988 11.71 10.2901L13.83 12.4101L12.41 13.8301L11.71 13.1201C11.5217 12.9318 11.2663 12.826 11 12.826C10.7337 12.826 10.4783 12.9318 10.29 13.1201C10.1017 13.3084 9.99588 13.5638 9.99588 13.8301C9.99588 14.0964 10.1017 14.3518 10.29 14.5401L11 15.2401L9.58998 16.6601L7.45997 14.5401C7.27261 14.3539 7.01916 14.2493 6.75497 14.2493C6.49079 14.2493 6.23734 14.3539 6.04997 14.5401C5.86372 14.7275 5.75918 14.9809 5.75918 15.2451C5.75918 15.5093 5.86372 15.7628 6.04997 15.9501L8.16998 18.0701L6.75997 19.4901L2.50997 15.2401L15.24 2.51011L19.49 6.76011L18.07 8.17011Z" fill="black"/>
</svg>
