<svg width="20" height="20" viewBox="0 0 20 20" fill="none" xmlns="http://www.w3.org/2000/svg">
<path d="M15.8334 5.83329H13.3334V4.99996C13.3334 4.1159 12.9822 3.26806 12.3571 2.64294C11.7319 2.01782 10.8841 1.66663 10 1.66663C9.11599 1.66663 8.26814 2.01782 7.64302 2.64294C7.0179 3.26806 6.66671 4.1159 6.66671 4.99996V5.83329H4.16671C3.94569 5.83329 3.73373 5.92109 3.57745 6.07737C3.42117 6.23365 3.33337 6.44561 3.33337 6.66663V15.8333C3.33337 16.4963 3.59677 17.1322 4.06561 17.6011C4.53445 18.0699 5.17033 18.3333 5.83337 18.3333H14.1667C14.8297 18.3333 15.4656 18.0699 15.9345 17.6011C16.4033 17.1322 16.6667 16.4963 16.6667 15.8333V6.66663C16.6667 6.44561 16.5789 6.23365 16.4226 6.07737C16.2663 5.92109 16.0544 5.83329 15.8334 5.83329ZM8.33337 4.99996C8.33337 4.55793 8.50897 4.13401 8.82153 3.82145C9.13409 3.50889 9.55801 3.33329 10 3.33329C10.4421 3.33329 10.866 3.50889 11.1786 3.82145C11.4911 4.13401 11.6667 4.55793 11.6667 4.99996V5.83329H8.33337V4.99996ZM15 15.8333C15 16.0543 14.9122 16.2663 14.756 16.4225C14.5997 16.5788 14.3877 16.6666 14.1667 16.6666H5.83337C5.61236 16.6666 5.4004 16.5788 5.24412 16.4225C5.08784 16.2663 5.00004 16.0543 5.00004 15.8333V7.49996H6.66671V8.33329C6.66671 8.55431 6.7545 8.76627 6.91079 8.92255C7.06707 9.07883 7.27903 9.16663 7.50004 9.16663C7.72105 9.16663 7.93302 9.07883 8.0893 8.92255C8.24558 8.76627 8.33337 8.55431 8.33337 8.33329V7.49996H11.6667V8.33329C11.6667 8.55431 11.7545 8.76627 11.9108 8.92255C12.0671 9.07883 12.279 9.16663 12.5 9.16663C12.7211 9.16663 12.933 9.07883 13.0893 8.92255C13.2456 8.76627 13.3334 8.55431 13.3334 8.33329V7.49996H15V15.8333Z" fill="white"/>
</svg>
