<svg width="85" height="20" viewBox="0 0 85 20" fill="none" xmlns="http://www.w3.org/2000/svg">
<path d="M22.0357 6.36816C21.3723 4.94196 20.0788 4.04643 18.1551 4.04643C17.5581 4.04643 16.9942 4.21227 16.4635 4.47761C15.9328 4.74295 15.4685 5.14096 15.1368 5.60531L15.0705 5.70481V0.13267C15.0705 0.0995025 15.0705 0.066335 15.0373 0.0331675C14.971 0 14.9378 0 14.9047 0H12.1849C12.1517 0 12.1186 0 12.0854 0.0331675C12.0522 0.066335 12.0522 0.0995025 12.0522 0.13267V16.0862C12.0522 16.1194 12.0522 16.1526 12.0854 16.1857C12.1186 16.2189 12.1517 16.2189 12.1849 16.2189H15.1037C15.1368 16.2189 15.17 16.2189 15.2032 16.1857C15.2363 16.1526 15.2363 16.1194 15.2363 16.0862V9.2869C15.2363 7.9602 16.1318 7.03151 17.5249 7.03151C19.0838 7.03151 19.4486 8.29187 19.4486 9.58541V16.0862C19.4486 16.1194 19.4486 16.1526 19.4818 16.1857C19.5149 16.2189 19.5481 16.2189 19.5813 16.2189H22.5C22.5332 16.2189 22.5663 16.2189 22.5995 16.1857C22.6327 16.1526 22.6327 16.1194 22.6327 16.0862V9.1874C22.6327 8.95522 22.6327 8.72305 22.5995 8.49088C22.5332 7.76119 22.3342 7.03151 22.0357 6.36816Z" fill="white"/>
<path d="M7.40874 8.72303C7.40874 8.72303 5.91621 8.35819 5.38553 8.22552C4.82168 8.09285 3.89299 7.79434 3.89299 7.06466C3.89299 6.33498 4.65584 6.1028 5.45186 6.1028C6.24788 6.1028 7.11024 6.30181 7.17657 7.16416C7.17657 7.19733 7.20974 7.2305 7.20974 7.2305C7.24291 7.26366 7.27607 7.26367 7.30924 7.26367H10.1948C10.228 7.26367 10.228 7.26367 10.228 7.26367L10.2611 7.2305L10.2943 7.19733C10.2943 7.19733 10.2943 7.16416 10.2943 7.131C10.1285 4.34493 7.67408 3.3499 5.41869 3.3499C2.73212 3.3499 0.775242 5.10778 0.775242 7.06466C0.775242 8.49086 1.17325 9.81756 4.32417 10.7463C4.88801 10.9121 5.6177 11.1111 6.28105 11.3101C7.07707 11.5423 7.50825 11.8739 7.50825 12.4046C7.50825 13.0016 6.61272 13.4328 5.75037 13.4328C4.49 13.4328 3.59448 12.9685 3.52815 12.1393C3.52815 12.1061 3.49498 12.073 3.49498 12.073C3.46181 12.0398 3.42864 12.0398 3.39548 12.0398H0.509904C0.476736 12.0398 0.476737 12.0398 0.476737 12.0398C0.476737 12.0398 0.443567 12.0398 0.443567 12.073L0.4104 12.1061V12.1393C0.54307 14.7595 3.09697 16.1857 5.45186 16.1857C8.96762 16.1857 10.5597 14.1957 10.5597 12.3383C10.5928 11.4759 10.3938 9.48589 7.40874 8.72303Z" fill="white"/>
<path d="M44.5565 4.01326C43.0972 4.01326 41.87 4.80928 41.0739 5.8043V4.11276C41.0739 4.07959 41.0739 4.04643 41.0408 4.01326C41.0076 3.98009 40.9744 3.98009 40.9744 3.98009H38.2215C38.1884 3.98009 38.1552 3.98009 38.122 4.01326C38.0889 4.04643 38.0889 4.07959 38.0889 4.11276V19.7678C38.0889 19.801 38.0889 19.8342 38.122 19.8342C38.1552 19.8673 38.1884 19.8673 38.2215 19.8673H41.1403C41.1734 19.8673 41.2066 19.8673 41.2066 19.8342C41.2066 19.801 41.2398 19.7678 41.2398 19.7678V14.66H41.2729C41.7373 15.3565 42.9977 16.2189 44.656 16.2189C47.7738 16.2189 50.394 13.6318 50.394 10.1161C50.4272 6.76616 47.8401 4.01326 44.5565 4.01326ZM44.2912 13.2338C43.661 13.2338 43.064 13.068 42.5333 12.7363C42.0026 12.4046 41.6046 11.9403 41.3393 11.3433C41.1071 10.7794 41.0076 10.1492 41.1403 9.55223C41.2398 8.95522 41.5383 8.39137 41.9695 7.92702C42.4006 7.49585 42.9645 7.16417 43.5615 7.06467C44.1585 6.932 44.7887 6.99833 45.3526 7.23051C45.9164 7.46268 46.4139 7.86069 46.7456 8.3582C47.0773 8.85571 47.2763 9.4859 47.2763 10.0829C47.2763 10.4809 47.2099 10.8789 47.0441 11.2769C46.9114 11.6418 46.6792 12.0066 46.3807 12.272C46.1154 12.5705 45.7506 12.8026 45.3857 12.9353C45.0872 13.1343 44.6892 13.2338 44.2912 13.2338Z" fill="white"/>
<path d="M29.3986 3.3499C26.6789 3.3499 25.319 4.27859 24.2245 5.00828L24.1913 5.04144C24.125 5.07461 24.0918 5.14095 24.0918 5.20728C24.0918 5.27362 24.0918 5.33995 24.125 5.40629L25.2195 7.26367C25.2527 7.29683 25.2527 7.33 25.2858 7.36317C25.319 7.39634 25.3522 7.39634 25.3853 7.39634C25.4185 7.39634 25.4517 7.39634 25.518 7.39634C25.5512 7.39634 25.5843 7.36317 25.6175 7.33L25.717 7.26367C26.2808 6.79932 27.1764 6.16914 29.3654 6.0033C30.5926 5.9038 31.6208 6.23547 32.4168 6.93199C33.2792 7.72801 33.7767 8.98838 33.7767 10.3151C33.7767 12.7695 32.3173 14.3283 29.9956 14.3615C28.0719 14.3615 26.7784 13.3333 26.7784 11.8739C26.7784 11.0779 27.1432 10.5804 27.8397 10.0497C27.9061 10.0166 27.9392 9.95023 27.9392 9.8839C27.9392 9.81756 27.9392 9.75123 27.9061 9.68489L26.9442 7.86068C26.911 7.82751 26.911 7.79434 26.8779 7.76118C26.8447 7.72801 26.8115 7.72801 26.7784 7.69484C26.7452 7.69484 26.712 7.69484 26.6789 7.69484C26.6457 7.69484 26.6125 7.72801 26.5794 7.72801C25.4848 8.35819 24.1581 9.55222 24.2245 11.8408C24.324 14.7264 26.712 16.9486 29.8298 17.0149H29.9956H30.1946C33.9094 16.8822 36.5959 14.1293 36.5959 10.4146C36.5296 7.03149 34.042 3.3499 29.3986 3.3499Z" fill="white"/>
<path d="M61.9695 5.10777H60.1121C60.079 5.10777 60.0126 5.14094 59.9795 5.14094C59.9463 5.17411 59.9463 5.20728 59.9463 5.27361V9.18738C59.9463 9.22054 59.9795 9.28688 59.9795 9.28688C60.0126 9.32004 60.0458 9.32004 60.1121 9.32004H61.9695C63.0972 9.32004 63.9264 8.42452 63.9264 7.19733C63.9264 6.0033 63.0972 5.10777 61.9695 5.10777Z" fill="white"/>
<path d="M67.6743 12.0066C67.6743 12.5705 68.1387 12.9022 69.001 12.9022C70.1287 12.9022 70.7921 12.3051 70.7921 11.2106V10.9121L69.1005 11.0116C68.205 11.0116 67.6743 11.3765 67.6743 12.0066Z" fill="white"/>
<path d="M81.4717 0.033186H56.4635C56.0654 0.033186 55.6343 0.0995209 55.2694 0.265358C54.9046 0.431196 54.5397 0.663368 54.2412 0.928708C53.9427 1.22722 53.7105 1.55889 53.5779 1.9569C53.412 2.32174 53.3457 2.75292 53.3457 3.15093V16.8491C53.3457 17.6783 53.6774 18.4743 54.2744 19.0713C54.8714 19.6683 55.6674 20 56.4966 20H81.4717C81.8698 20 82.3009 19.9337 82.6658 19.7678C83.0306 19.602 83.3955 19.3698 83.694 19.1045C83.9925 18.806 84.2246 18.4743 84.3573 18.0763C84.5232 17.7115 84.5895 17.2803 84.5895 16.8823V3.15093C84.5895 2.75292 84.5232 2.32174 84.3573 1.9569C84.1915 1.59206 83.9593 1.22722 83.694 0.928708C83.3955 0.630201 83.0638 0.398028 82.6658 0.265358C82.2678 0.132688 81.8698 0.033186 81.4717 0.033186ZM62.0688 10.879H60.1119C60.0787 10.879 60.0124 10.9121 59.9792 10.9121C59.946 10.9453 59.946 10.9785 59.946 11.0448V13.8309C59.946 13.864 59.9129 13.9304 59.9129 13.9635C59.8797 13.9967 59.8465 13.9967 59.7802 13.9967H58.3872C58.354 13.9967 58.2877 13.9635 58.2545 13.9635C58.2213 13.9304 58.2213 13.8972 58.2213 13.8309V3.74795C58.2213 3.71478 58.2545 3.64844 58.2545 3.61527C58.2877 3.58211 58.3208 3.58211 58.3872 3.58211H62.0688C64.1583 3.58211 65.6508 5.10781 65.6508 7.23053C65.6508 9.35325 64.1583 10.879 62.0688 10.879ZM72.417 13.8309C72.417 13.864 72.417 13.864 72.417 13.8972C72.417 13.9304 72.3838 13.9304 72.3838 13.9635C72.3838 13.9635 72.3507 13.9967 72.3175 13.9967C72.2843 13.9967 72.2843 13.9967 72.2512 13.9967H70.9576C70.9245 13.9967 70.9245 13.9967 70.8913 13.9967C70.8581 13.9967 70.8581 13.9635 70.825 13.9635C70.825 13.9635 70.7918 13.9304 70.7918 13.8972C70.7918 13.864 70.7918 13.864 70.7918 13.8309V13.5324C70.7918 13.4992 70.7918 13.466 70.7586 13.466C70.7586 13.4329 70.7255 13.4329 70.6923 13.4329C70.6591 13.4329 70.626 13.4329 70.626 13.4329C70.5928 13.4329 70.5928 13.466 70.5596 13.466C70.1616 13.8972 69.5314 14.1957 68.5364 14.1957C67.0439 14.1957 66.0489 13.4329 66.0489 12.073C66.0489 11.7413 66.1152 11.4096 66.2479 11.1111C66.3805 10.8126 66.6127 10.5473 66.878 10.3814C67.4087 9.98343 68.2379 9.78443 69.4983 9.71809L70.825 9.68493V9.28692C70.825 8.52406 70.2943 8.19239 69.4651 8.19239C68.6359 8.19239 68.1052 8.4909 67.9726 8.95524C67.9726 8.98841 67.9394 9.02158 67.9062 9.05474C67.8731 9.08791 67.8399 9.08791 67.8067 9.08791H66.5132C66.48 9.08791 66.48 9.08791 66.4469 9.08791C66.4137 9.08791 66.4137 9.05474 66.3805 9.05474C66.3805 9.02158 66.3474 9.02158 66.3474 8.98841C66.3474 8.95524 66.3474 8.95524 66.3474 8.92207C66.5464 7.76121 67.4751 6.89886 69.4983 6.89886C71.6542 6.89886 72.417 7.89388 72.417 9.8176V13.8309ZM80.5762 7.29687L77.6575 15.0581C76.9941 16.8491 75.8333 17.3134 74.5729 17.3134C74.3407 17.3134 74.1086 17.2803 73.8764 17.2139C73.8432 17.2139 73.81 17.1808 73.7769 17.1476C73.7437 17.1144 73.7437 17.0813 73.7437 17.0481V15.8541C73.7437 15.8209 73.7437 15.8209 73.7437 15.7877C73.7437 15.7546 73.7769 15.7546 73.7769 15.7214C73.81 15.7214 73.81 15.6882 73.8432 15.6882C73.8764 15.6882 73.8764 15.6882 73.9096 15.6882C74.1086 15.7214 74.3076 15.7546 74.5066 15.7546C74.8714 15.7877 75.2031 15.6551 75.5016 15.4561C75.8001 15.2571 75.9991 14.9586 76.0986 14.6269L76.1981 14.3615C76.1981 14.3284 76.1981 14.2952 76.1981 14.262L73.4784 7.29687C73.4784 7.2637 73.4784 7.23053 73.4784 7.23053C73.4784 7.19736 73.4784 7.1642 73.5115 7.1642C73.5115 7.13103 73.5447 7.13103 73.5779 7.09786C73.611 7.09786 73.611 7.06469 73.6442 7.06469H74.9709C75.0041 7.06469 75.0373 7.06469 75.0704 7.09786C75.1036 7.13103 75.1036 7.13103 75.1367 7.1642L76.9941 12.1062C76.9941 12.1393 77.0273 12.1725 77.0605 12.1725C77.0936 12.2057 77.1268 12.2057 77.16 12.2057C77.1931 12.2057 77.2263 12.2057 77.2595 12.1725C77.2926 12.1393 77.3258 12.1393 77.3258 12.1062L78.9178 7.19736C78.9178 7.1642 78.951 7.13103 78.9842 7.09786C79.0173 7.06469 79.0505 7.06469 79.0837 7.06469H80.4435C80.4767 7.06469 80.5099 7.06469 80.5099 7.09786C80.5431 7.09786 80.543 7.13103 80.5762 7.1642C80.5762 7.19736 80.6094 7.19736 80.6094 7.23053C80.5762 7.23053 80.5762 7.2637 80.5762 7.29687Z" fill="white"/>
</svg>
