<svg width="14" height="18" viewBox="0 0 14 18" fill="none" xmlns="http://www.w3.org/2000/svg">
<path d="M12.8333 4.83342H10.3333V4.00008C10.3333 3.11603 9.98206 2.26818 9.35694 1.64306C8.73182 1.01794 7.88397 0.666748 6.99992 0.666748C6.11586 0.666748 5.26802 1.01794 4.6429 1.64306C4.01777 2.26818 3.66659 3.11603 3.66659 4.00008V4.83342H1.16659C0.945572 4.83342 0.73361 4.92121 0.57733 5.07749C0.421049 5.23377 0.333252 5.44573 0.333252 5.66675V14.8334C0.333252 15.4965 0.596644 16.1323 1.06549 16.6012C1.53433 17.07 2.17021 17.3334 2.83325 17.3334H11.1666C11.8296 17.3334 12.4655 17.07 12.9344 16.6012C13.4032 16.1323 13.6666 15.4965 13.6666 14.8334V5.66675C13.6666 5.44573 13.5788 5.23377 13.4225 5.07749C13.2662 4.92121 13.0543 4.83342 12.8333 4.83342ZM5.33325 4.00008C5.33325 3.55805 5.50885 3.13413 5.82141 2.82157C6.13397 2.50901 6.55789 2.33341 6.99992 2.33341C7.44195 2.33341 7.86587 2.50901 8.17843 2.82157C8.49099 3.13413 8.66658 3.55805 8.66658 4.00008V4.83342H5.33325V4.00008ZM11.9999 14.8334C11.9999 15.0544 11.9121 15.2664 11.7558 15.4227C11.5996 15.579 11.3876 15.6667 11.1666 15.6667H2.83325C2.61224 15.6667 2.40028 15.579 2.244 15.4227C2.08772 15.2664 1.99992 15.0544 1.99992 14.8334V6.50008H3.66659V7.33342C3.66659 7.55443 3.75438 7.76639 3.91066 7.92267C4.06694 8.07895 4.2789 8.16675 4.49992 8.16675C4.72093 8.16675 4.93289 8.07895 5.08917 7.92267C5.24545 7.76639 5.33325 7.55443 5.33325 7.33342V6.50008H8.66658V7.33342C8.66658 7.55443 8.75438 7.76639 8.91066 7.92267C9.06694 8.07895 9.2789 8.16675 9.49992 8.16675C9.72093 8.16675 9.93289 8.07895 10.0892 7.92267C10.2455 7.76639 10.3333 7.55443 10.3333 7.33342V6.50008H11.9999V14.8334Z" fill="black"/>
</svg>
