<svg width="14" height="12" viewBox="0 0 14 12" fill="none" xmlns="http://www.w3.org/2000/svg">
<path d="M12.44 1.33334C11.7333 0.624814 10.7965 0.192369 9.7989 0.114122C8.80125 0.0358751 7.80851 0.316986 7 0.906675C6.15177 0.275767 5.096 -0.0103173 4.04528 0.106033C2.99457 0.222384 2.02696 0.732527 1.33732 1.53373C0.647674 2.33494 0.287218 3.36769 0.328537 4.42402C0.369856 5.48035 0.809882 6.48179 1.56 7.22668L5.7 11.3733C6.04668 11.7145 6.51359 11.9058 7 11.9058C7.48641 11.9058 7.95332 11.7145 8.3 11.3733L12.44 7.22668C13.2184 6.44352 13.6553 5.38419 13.6553 4.28001C13.6553 3.17583 13.2184 2.1165 12.44 1.33334Z" fill="#886E4C"/>
</svg>
