<svg width="14" height="12" viewBox="0 0 14 12" fill="none" xmlns="http://www.w3.org/2000/svg">
<path d="M12.44 1.33334C11.7333 0.624814 10.7965 0.192369 9.79887 0.114122C8.80123 0.0358751 7.80849 0.316986 6.99998 0.906675C6.15175 0.275767 5.09597 -0.0103173 4.04526 0.106033C2.99455 0.222384 2.02694 0.732527 1.3373 1.53373C0.647651 2.33494 0.287195 3.36769 0.328514 4.42402C0.369834 5.48035 0.809859 6.48179 1.55998 7.22668L5.69998 11.3733C6.04666 11.7145 6.51357 11.9058 6.99998 11.9058C7.48639 11.9058 7.9533 11.7145 8.29998 11.3733L12.44 7.22668C13.2184 6.44352 13.6553 5.38419 13.6553 4.28001C13.6553 3.17583 13.2184 2.1165 12.44 1.33334ZM11.5 6.30667L7.35998 10.4467C7.31287 10.4942 7.2568 10.532 7.19501 10.5578C7.13322 10.5835 7.06693 10.5968 6.99998 10.5968C6.93303 10.5968 6.86674 10.5835 6.80495 10.5578C6.74316 10.532 6.68709 10.4942 6.63998 10.4467L2.49998 6.28668C1.97715 5.75224 1.68439 5.03432 1.68439 4.28668C1.68439 3.53903 1.97715 2.82111 2.49998 2.28668C3.03275 1.76067 3.7513 1.46572 4.49998 1.46572C5.24866 1.46572 5.96721 1.76067 6.49998 2.28668C6.56196 2.34916 6.63569 2.39876 6.71693 2.4326C6.79817 2.46645 6.88531 2.48387 6.97331 2.48387C7.06132 2.48387 7.14846 2.46645 7.2297 2.4326C7.31094 2.39876 7.38467 2.34916 7.44665 2.28668C7.97942 1.76067 8.69796 1.46572 9.44665 1.46572C10.1953 1.46572 10.9139 1.76067 11.4466 2.28668C11.9767 2.81411 12.279 3.52814 12.289 4.2758C12.299 5.02346 12.0157 5.7453 11.5 6.28668V6.30667Z" fill="#886E4C"/>
</svg>
