<svg width="16" height="16" viewBox="0 0 16 16" fill="none" xmlns="http://www.w3.org/2000/svg">
<path d="M13.44 3.33334C12.7333 2.62481 11.7965 2.19237 10.7989 2.11412C9.80125 2.03588 8.80851 2.31699 8 2.90668C7.15177 2.27577 6.096 1.98968 5.04528 2.10603C3.99457 2.22238 3.02696 2.73253 2.33732 3.53373C1.64767 4.33494 1.28722 5.36769 1.32854 6.42402C1.36986 7.48035 1.80988 8.48179 2.56 9.22668L6.7 13.3733C7.04668 13.7145 7.51359 13.9058 8 13.9058C8.48641 13.9058 8.95332 13.7145 9.3 13.3733L13.44 9.22668C14.2184 8.44352 14.6553 7.38419 14.6553 6.28001C14.6553 5.17583 14.2184 4.1165 13.44 3.33334Z" fill="#886E4C"/>
</svg>
